<?xml version="1.0" encoding="UTF-8" standalone="no"?>
<!-- Created with Inkscape (http://www.inkscape.org/) -->

<svg
   xmlns:dc="http://purl.org/dc/elements/1.1/"
   xmlns:cc="http://creativecommons.org/ns#"
   xmlns:rdf="http://www.w3.org/1999/02/22-rdf-syntax-ns#"
   xmlns:svg="http://www.w3.org/2000/svg"
   xmlns="http://www.w3.org/2000/svg"
   xmlns:sodipodi="http://sodipodi.sourceforge.net/DTD/sodipodi-0.dtd"
   xmlns:inkscape="http://www.inkscape.org/namespaces/inkscape"
   version="1.1"
   id="svg860"
   xml:space="preserve"
   width="690.70929"
   height="370.09332"
   viewBox="0 0 690.70928 370.09333"
   sodipodi:docname="logo_citic_negro.svg"
   inkscape:version="0.92.3 (2405546, 2018-03-11)"><metadata
     id="metadata866"><rdf:RDF><cc:Work
         rdf:about=""><dc:format>image/svg+xml</dc:format><dc:type
           rdf:resource="http://purl.org/dc/dcmitype/StillImage" /><dc:title></dc:title></cc:Work></rdf:RDF></metadata><defs
     id="defs864" /><sodipodi:namedview
     pagecolor="#ffffff"
     bordercolor="#666666"
     borderopacity="1"
     objecttolerance="10"
     gridtolerance="10"
     guidetolerance="10"
     inkscape:pageopacity="0"
     inkscape:pageshadow="2"
     inkscape:window-width="1920"
     inkscape:window-height="1136"
     id="namedview862"
     showgrid="false"
     scale-x="0.4"
     fit-margin-top="0"
     fit-margin-left="0"
     fit-margin-right="0"
     fit-margin-bottom="0"
     inkscape:zoom="0.42050094"
     inkscape:cx="-11.371507"
     inkscape:cy="690.36913"
     inkscape:window-x="1920"
     inkscape:window-y="48"
     inkscape:window-maximized="1"
     inkscape:current-layer="g868" /><g
     id="g868"
     inkscape:groupmode="layer"
     inkscape:label="ink_ext_XXXXXX"
     transform="matrix(1.3333333,0,0,-1.3333333,-214.86399,585.86399)"><path
       inkscape:connector-curvature="0"
       id="path874"
       style="fill:#231f20;fill-opacity:1;fill-rule:nonzero;stroke:none;stroke-width:0.1"
       d="m 396.961,324.64 -17.094,-9.875 -29.609,51.274 17.094,9.867 29.609,-51.266" /><path
       inkscape:connector-curvature="0"
       id="path876"
       style="fill:#231f20;fill-opacity:1;fill-rule:nonzero;stroke:none;stroke-width:0.1"
       d="m 431.133,344.375 -17.094,-9.868 -29.594,51.266 17.094,9.867 29.594,-51.265" /><path
       inkscape:connector-curvature="0"
       id="path878"
       style="fill:#231f20;fill-opacity:1;fill-rule:nonzero;stroke:none;stroke-width:0.1"
       d="m 414.039,266.726 17.094,-9.867 -29.594,-51.273 -17.109,9.867 29.609,51.273" /><path
       inkscape:connector-curvature="0"
       id="path880"
       style="fill:#231f20;fill-opacity:1;fill-rule:nonzero;stroke:none;stroke-width:0.1"
       d="m 379.867,286.453 17.094,-9.86 -29.609,-51.281 -17.094,9.875 29.609,51.266" /><path
       inkscape:connector-curvature="0"
       id="path882"
       style="fill:#231f20;fill-opacity:1;fill-rule:nonzero;stroke:none;stroke-width:0.1"
       d="m 325.742,380.203 v 19.734 h -59.203 v -19.734 h 59.203" /><path
       inkscape:connector-curvature="0"
       id="path884"
       style="fill:#231f20;fill-opacity:1;fill-rule:nonzero;stroke:none;stroke-width:0.1"
       d="m 195.328,324.64 17.086,-9.875 29.609,51.274 -17.093,9.867 -29.602,-51.266" /><path
       inkscape:connector-curvature="0"
       id="path886"
       style="fill:#231f20;fill-opacity:1;fill-rule:nonzero;stroke:none;stroke-width:0.1"
       d="m 161.148,344.375 17.086,-9.868 29.602,51.266 -17.094,9.867 -29.594,-51.265" /><path
       inkscape:connector-curvature="0"
       id="path888"
       style="fill:#231f20;fill-opacity:1;fill-rule:nonzero;stroke:none;stroke-width:0.1"
       d="m 178.242,266.726 -17.094,-9.867 29.594,-51.273 17.094,9.867 -29.594,51.273" /><path
       inkscape:connector-curvature="0"
       id="path890"
       style="fill:#231f20;fill-opacity:1;fill-rule:nonzero;stroke:none;stroke-width:0.1"
       d="m 212.414,286.453 -17.086,-9.86 29.602,-51.281 17.093,9.875 -29.609,51.266" /><path
       inkscape:connector-curvature="0"
       id="path892"
       style="fill:#231f20;fill-opacity:1;fill-rule:nonzero;stroke:none;stroke-width:0.1"
       d="m 266.539,419.671 v 19.727 h 59.203 v -19.727 h -59.203" /><path
       inkscape:connector-curvature="0"
       id="path894"
       style="fill:#231f20;fill-opacity:1;fill-rule:nonzero;stroke:none;stroke-width:0.1"
       d="m 266.539,380.203 v 19.734 h 59.203 v -19.734 h -59.203" /><path
       inkscape:connector-curvature="0"
       id="path896"
       style="fill:#231f20;fill-opacity:1;fill-rule:nonzero;stroke:none;stroke-width:0.1"
       d="m 266.539,181.562 v -19.734 h 59.203 v 19.734 h -59.203" /><path
       inkscape:connector-curvature="0"
       id="path898"
       style="fill:#231f20;fill-opacity:1;fill-rule:nonzero;stroke:none;stroke-width:0.1"
       d="m 266.539,221.031 v -19.735 h 59.203 v 19.735 h -59.203" /><path
       inkscape:connector-curvature="0"
       id="path900"
       style="fill:#231f20;fill-opacity:1;fill-rule:nonzero;stroke:none;stroke-width:0.1"
       d="m 514.633,230.671 -15.36,-2.796 c -0.515,3.031 -1.687,5.312 -3.5,6.851 -1.828,1.531 -4.187,2.297 -7.109,2.297 -3.859,0 -6.953,-1.336 -9.25,-4.023 -2.312,-2.672 -3.469,-7.157 -3.469,-13.446 0,-6.992 1.172,-11.929 3.5,-14.812 2.344,-2.883 5.469,-4.328 9.407,-4.328 2.921,0 5.328,0.851 7.203,2.554 1.875,1.711 3.203,4.649 3.968,8.813 l 15.344,-2.664 c -1.578,-7.055 -4.625,-12.391 -9.109,-15.992 -4.5,-3.602 -10.516,-5.407 -18.063,-5.407 -8.593,0 -15.437,2.711 -20.531,8.149 -5.109,5.437 -7.656,12.961 -7.656,22.578 0,9.726 2.562,17.297 7.687,22.711 5.125,5.422 12.047,8.125 20.782,8.125 7.156,0 12.843,-1.531 17.062,-4.594 4.219,-3.07 7.25,-7.734 9.094,-14.016" /><path
       inkscape:connector-curvature="0"
       id="path902"
       style="fill:#231f20;fill-opacity:1;fill-rule:nonzero;stroke:none;stroke-width:0.1"
       d="m 526.32,189.187 v 58.906 h 15.5 v -58.906 z m 0,66.734 v 14.469 h 15.5 v -14.469 h -15.5" /><path
       inkscape:connector-curvature="0"
       id="path904"
       style="fill:#231f20;fill-opacity:1;fill-rule:nonzero;stroke:none;stroke-width:0.1"
       d="m 584.961,248.093 v -12.398 h -10.609 v -23.906 c 0,-4.844 0.093,-7.664 0.296,-8.469 0.204,-0.797 0.641,-1.453 1.36,-1.977 0.703,-0.523 1.562,-0.781 2.594,-0.781 1.406,0 3.453,0.5 6.156,1.492 l 1.39,-12.023 c -3.578,-1.547 -7.656,-2.313 -12.187,-2.313 -2.797,0 -5.297,0.469 -7.531,1.414 -2.235,0.946 -3.875,2.172 -4.922,3.68 -1.047,1.5 -1.766,3.531 -2.172,6.094 -0.328,1.812 -0.5,5.484 -0.5,11.023 v 25.766 h -7.078 v 12.398 h 7.078 v 11.664 l 15.516,9.164 v -20.828 h 10.609" /><path
       inkscape:connector-curvature="0"
       id="path906"
       style="fill:#231f20;fill-opacity:1;fill-rule:nonzero;stroke:none;stroke-width:0.1"
       d="m 595.57,189.187 v 58.906 h 15.5 v -58.906 z m 0,66.734 v 14.469 h 15.5 v -14.469 h -15.5" /><path
       inkscape:connector-curvature="0"
       id="path908"
       style="fill:#231f20;fill-opacity:1;fill-rule:nonzero;stroke:none;stroke-width:0.1"
       d="m 678.445,230.671 -15.359,-2.796 c -0.516,3.031 -1.688,5.312 -3.5,6.851 -1.828,1.531 -4.188,2.297 -7.109,2.297 -3.875,0 -6.954,-1.336 -9.266,-4.023 -2.297,-2.672 -3.453,-7.157 -3.453,-13.446 0,-6.992 1.172,-11.929 3.5,-14.812 2.328,-2.883 5.469,-4.328 9.39,-4.328 2.938,0 5.344,0.851 7.219,2.554 1.86,1.711 3.188,4.649 3.969,8.813 l 15.344,-2.664 c -1.578,-7.055 -4.625,-12.391 -9.11,-15.992 -4.5,-3.602 -10.515,-5.407 -18.062,-5.407 -8.578,0 -15.438,2.711 -20.547,8.149 -5.094,5.437 -7.641,12.961 -7.641,22.578 0,9.726 2.563,17.297 7.688,22.711 5.125,5.422 12.047,8.125 20.797,8.125 7.14,0 12.828,-1.531 17.047,-4.594 4.218,-3.07 7.25,-7.734 9.093,-14.016" /></g></svg>